<svg width="24" height="24" viewBox="0 0 24 24" fill="none" xmlns="http://www.w3.org/2000/svg">
<mask id="mask0_12_123" style="mask-type:alpha" maskUnits="userSpaceOnUse" x="0" y="0" width="24" height="24">
<rect x="0.5" y="0.5" width="23" height="23" fill="#D9D9D9" stroke="#193A03"/>
</mask>
<g mask="url(#mask0_12_123)">
<path d="M12 2.0127C13.3817 2.0127 14.6805 2.27453 15.8955 2.79883C17.1106 3.32321 18.1677 4.03484 19.0664 4.93359C19.9652 5.83235 20.6768 6.88936 21.2012 8.10449C21.7255 9.31953 21.9873 10.6183 21.9873 12C21.9873 13.3817 21.7255 14.6805 21.2012 15.8955C20.6768 17.1106 19.9652 18.1677 19.0664 19.0664C18.1677 19.9652 17.1106 20.6768 15.8955 21.2012C14.6805 21.7255 13.3817 21.9873 12 21.9873C10.6183 21.9873 9.31953 21.7255 8.10449 21.2012C6.88936 20.6768 5.83235 19.9652 4.93359 19.0664C4.03484 18.1677 3.32321 17.1106 2.79883 15.8955C2.27453 14.6805 2.0127 13.3817 2.0127 12C2.0127 10.6183 2.27453 9.31953 2.79883 8.10449C3.32321 6.88936 4.03484 5.83235 4.93359 4.93359C5.83235 4.03484 6.88936 3.32321 8.10449 2.79883C9.31953 2.27453 10.6183 2.0127 12 2.0127ZM12 16.9873C11.1154 16.9873 10.2808 17.1172 9.49609 17.376C8.71156 17.6347 7.99384 18.0061 7.34277 18.4902L7.3291 18.5L7.34277 18.5098C7.99384 18.9939 8.71156 19.3653 9.49609 19.624C10.2808 19.8828 11.1154 20.0127 12 20.0127C12.8846 20.0127 13.7192 19.8828 14.5039 19.624C15.2884 19.3653 16.0062 18.9939 16.6572 18.5098L16.6709 18.5L16.6572 18.4902C16.0062 18.0061 15.2884 17.6347 14.5039 17.376C13.7192 17.1172 12.8846 16.9873 12 16.9873ZM12 3.9873C9.78004 3.9873 7.88979 4.76841 6.3291 6.3291C4.76841 7.88979 3.9873 9.78004 3.9873 12C3.9873 12.9847 4.15007 13.9112 4.47559 14.7793C4.80108 15.6473 5.25652 16.4239 5.84082 17.1084L5.84863 17.1172L5.85742 17.1104C6.70633 16.4612 7.6553 15.9488 8.7041 15.5742C9.75271 15.1997 10.8514 15.0127 12 15.0127C13.1486 15.0127 14.2473 15.1997 15.2959 15.5742C16.3447 15.9488 17.2937 16.4612 18.1426 17.1104L18.1514 17.1172L18.1592 17.1084C18.7435 16.4239 19.1989 15.6473 19.5244 14.7793C19.8499 13.9112 20.0127 12.9847 20.0127 12C20.0127 9.78004 19.2316 7.88979 17.6709 6.3291C16.1102 4.76841 14.22 3.9873 12 3.9873ZM12 6.0127C12.9801 6.0127 13.8059 6.34891 14.4785 7.02148C15.1511 7.69406 15.4873 8.51987 15.4873 9.5C15.4873 10.4801 15.1511 11.3059 14.4785 11.9785C13.8059 12.6511 12.9801 12.9873 12 12.9873C11.0199 12.9873 10.1941 12.6511 9.52148 11.9785C8.84891 11.3059 8.5127 10.4801 8.5127 9.5C8.5127 8.51987 8.84891 7.69406 9.52148 7.02148C10.1941 6.34891 11.0199 6.0127 12 6.0127ZM12 7.9873C11.5636 7.9873 11.2019 8.13014 10.916 8.41602C10.6301 8.7019 10.4873 9.06365 10.4873 9.5C10.4873 9.93635 10.6301 10.2981 10.916 10.584C11.2019 10.8699 11.5636 11.0127 12 11.0127C12.4364 11.0127 12.7981 10.8699 13.084 10.584C13.3699 10.2981 13.5127 9.93635 13.5127 9.5C13.5127 9.06365 13.3699 8.7019 13.084 8.41602C12.7981 8.13014 12.4364 7.9873 12 7.9873Z" fill="#193A03" stroke="#193A03" stroke-width="0.025"/>
</g>
</svg>
