<svg width="29" height="29" viewBox="0 0 29 29" fill="none" xmlns="http://www.w3.org/2000/svg">
<path d="M25 13.5L14.5 24.5L4 13.5V8L9 5L12 6L14.5 8L17 6L20.5 5L25 8V13.5Z" fill="#193A03"/>
<mask id="mask0_121_70" style="mask-type:alpha" maskUnits="userSpaceOnUse" x="0" y="0" width="29" height="29">
<rect width="29" height="29" fill="#D9D9D9"/>
</mask>
<g mask="url(#mask0_121_70)">
<path d="M14.5 25.1938C13.581 25.1938 12.7479 24.2271 12.7479 24.2271C10.7139 22.3944 9.0323 20.8135 7.70313 19.4844C6.37396 18.1552 5.31667 16.962 4.53125 15.9047C3.74584 14.8474 3.19705 13.8757 2.8849 12.9896C2.57275 12.1035 2.41667 11.1972 2.41667 10.2708C2.41667 8.37778 3.05105 6.79688 4.3198 5.52813C5.58855 4.25937 7.16945 3.625 9.0625 3.625C10.1097 3.625 11.1066 3.84653 12.0531 4.28958C12.9997 4.73264 13.8153 5.35694 14.5 6.1625C15.1847 5.35694 16.0004 4.73264 16.9469 4.28958C17.8934 3.84653 18.8903 3.625 19.9375 3.625C21.8306 3.625 23.4115 4.25937 24.6802 5.52813C25.949 6.79688 26.5833 8.37778 26.5833 10.2708C26.5833 11.1972 26.4273 12.1035 26.1151 12.9896C25.803 13.8757 25.2542 14.8474 24.4688 15.9047C23.6833 16.962 22.626 18.1552 21.2969 19.4844C19.9677 20.8135 18.2861 22.3944 16.2521 24.2271C16.2521 24.2271 15.419 25.1938 14.5 25.1938ZM14.5 22.5354C16.4333 20.8035 18.0243 19.3182 19.2729 18.0797C20.5215 16.8411 21.5083 15.7637 22.2333 14.8474C22.9583 13.9311 23.4618 13.1155 23.7438 12.4005C24.0257 11.6856 24.1667 10.9757 24.1667 10.2708C24.1667 9.0625 23.7639 8.05556 22.9583 7.25C22.1528 6.44444 21.1458 6.04167 19.9375 6.04167C18.991 6.04167 18.1149 6.30851 17.3094 6.84219C16.5038 7.37587 16.3534 7.49318 15.6479 8.27708C14.9424 9.06099 14.0754 9.08082 13.3521 8.27708C12.6287 7.47335 12.4962 7.37587 11.6906 6.84219C10.8851 6.30851 10.009 6.04167 9.0625 6.04167C7.85417 6.04167 6.84723 6.44444 6.04167 7.25C5.23612 8.05556 4.83334 9.0625 4.83334 10.2708C4.83334 10.9757 4.97431 11.6856 5.25626 12.4005C5.5382 13.1155 6.04167 13.9311 6.76667 14.8474C7.49167 15.7637 8.47848 16.8411 9.72709 18.0797C10.9757 19.3182 12.5667 20.8035 14.5 22.5354Z" fill="#193A03"/>
</g>
</svg>
