<svg width="24" height="24" viewBox="0 0 24 24" fill="none" xmlns="http://www.w3.org/2000/svg">
<mask id="mask0_12_117" style="mask-type:alpha" maskUnits="userSpaceOnUse" x="0" y="0" width="24" height="24">
<rect x="0.5" y="0.5" width="23" height="23" fill="#D9D9D9" stroke="#193A03"/>
</mask>
<g mask="url(#mask0_12_117)">
<path d="M16.5 3.0127C18.0636 3.0127 19.3685 3.53647 20.416 4.58398C21.4635 5.6315 21.9873 6.93645 21.9873 8.5C21.9873 9.26523 21.8585 10.0141 21.6006 10.7461C21.3428 11.4778 20.8897 12.281 20.2402 13.1553C19.5907 14.0296 18.7159 15.0165 17.6162 16.1162C16.5164 17.216 15.1246 18.5244 13.4414 20.041L13.4385 20.0439C13.4372 20.0454 13.4352 20.0479 13.4326 20.0508C13.4274 20.0566 13.4202 20.0654 13.4102 20.0762C13.3899 20.0979 13.3594 20.1287 13.3213 20.166C13.2451 20.2407 13.136 20.3409 13.0029 20.4404C12.7362 20.6399 12.3762 20.8379 12 20.8379C11.6238 20.8379 11.2638 20.6399 10.9971 20.4404C10.864 20.3409 10.7549 20.2407 10.6787 20.166C10.6406 20.1287 10.6101 20.0979 10.5898 20.0762C10.5798 20.0654 10.5726 20.0566 10.5674 20.0508C10.5648 20.0479 10.5628 20.0454 10.5615 20.0439L10.5586 20.041L9.35059 18.9424C8.19757 17.8831 7.20863 16.9411 6.38379 16.1162C5.28406 15.0165 4.40928 14.0296 3.75977 13.1553C3.11031 12.281 2.65722 11.4778 2.39941 10.7461C2.14154 10.0141 2.0127 9.26523 2.0127 8.5C2.0127 6.93645 2.53647 5.6315 3.58398 4.58398C4.6315 3.53647 5.93645 3.0127 7.5 3.0127C8.36484 3.0127 9.18806 3.19563 9.96973 3.56152C10.7514 3.92742 11.4247 4.44311 11.9902 5.1084L12 5.11914L12.0098 5.1084C12.5753 4.44311 13.2486 3.92742 14.0303 3.56152C14.8119 3.19563 15.6352 3.0127 16.5 3.0127ZM16.5 4.9873C15.7142 4.9873 14.987 5.20938 14.3184 5.65234C13.9853 5.87303 13.7867 6.00789 13.5986 6.16895C13.4105 6.3301 13.2324 6.51742 12.9404 6.8418C12.6503 7.16409 12.3284 7.32792 12.0059 7.33008C11.6833 7.3321 11.3572 7.17237 11.0596 6.8418C10.7604 6.50939 10.5827 6.32215 10.3965 6.16309C10.2102 6.00398 10.0149 5.8731 9.68164 5.65234C9.01299 5.20938 8.28582 4.9873 7.5 4.9873C6.49691 4.9873 5.66038 5.32205 4.99121 5.99121C4.32205 6.66038 3.9873 7.49691 3.9873 8.5C3.9873 9.08485 4.10419 9.6738 4.33789 10.2666C4.5718 10.8597 4.9896 11.5362 5.58984 12.2949C6.19027 13.0538 7.00749 13.9465 8.04102 14.9717C9.07447 15.9968 10.3913 17.2259 11.9912 18.6592L12 18.667L12.0088 18.6592C13.6087 17.2259 14.9255 15.9968 15.959 14.9717C16.9925 13.9465 17.8097 13.0538 18.4102 12.2949C19.0104 11.5362 19.4282 10.8597 19.6621 10.2666C19.8958 9.6738 20.0127 9.08485 20.0127 8.5C20.0127 7.49691 19.678 6.66038 19.0088 5.99121C18.3396 5.32205 17.5031 4.9873 16.5 4.9873Z" fill="#193A03" stroke="#193A03" stroke-width="0.025"/>
</g>
</svg>
