<svg width="24" height="24" viewBox="0 0 24 24" fill="none" xmlns="http://www.w3.org/2000/svg">
<mask id="mask0_12_105" style="mask-type:alpha" maskUnits="userSpaceOnUse" x="0" y="0" width="24" height="24">
<rect x="0.5" y="0.5" width="23" height="23" fill="#D9D9D9" stroke="#193A03"/>
</mask>
<g mask="url(#mask0_12_105)">
<path d="M12 2.0127C13.0967 2.0127 14.0354 2.40259 14.8164 3.18359C15.5974 3.9646 15.9873 4.90334 15.9873 6V6.0127H18C18.5467 6.0127 19.014 6.20734 19.4033 6.59668C19.7927 6.98602 19.9873 7.45334 19.9873 8V20C19.9873 20.5467 19.7927 21.014 19.4033 21.4033C19.014 21.7927 18.5467 21.9873 18 21.9873H6C5.45334 21.9873 4.98602 21.7927 4.59668 21.4033C4.20734 21.014 4.0127 20.5467 4.0127 20V8C4.0127 7.45334 4.20734 6.98602 4.59668 6.59668C4.98602 6.20734 5.45334 6.0127 6 6.0127H8.0127V6C8.0127 4.90334 8.40259 3.9646 9.18359 3.18359C9.9646 2.40259 10.9033 2.0127 12 2.0127ZM5.9873 20.0127H18.0127V7.9873H15.9873V10C15.9873 10.2802 15.8933 10.5149 15.7041 10.7041C15.5149 10.8933 15.2802 10.9873 15 10.9873C14.7198 10.9873 14.4851 10.8933 14.2959 10.7041C14.1067 10.5149 14.0127 10.2802 14.0127 10V7.9873H9.9873V10C9.9873 10.2802 9.89331 10.5149 9.7041 10.7041C9.51489 10.8933 9.28019 10.9873 9 10.9873C8.71981 10.9873 8.48511 10.8933 8.2959 10.7041C8.10669 10.5149 8.0127 10.2802 8.0127 10V7.9873H5.9873V20.0127ZM12 3.9873C11.4467 3.9873 10.9731 4.18511 10.5791 4.5791C10.1851 4.97309 9.9873 5.44666 9.9873 6V6.0127H14.0127V6C14.0127 5.44666 13.8149 4.97309 13.4209 4.5791C13.0269 4.18511 12.5533 3.9873 12 3.9873Z" fill="#193A03" stroke="#193A03" stroke-width="0.025"/>
</g>
</svg>
